<svg width="24" height="24" viewBox="0 0 24 24" fill="none" xmlns="http://www.w3.org/2000/svg">
<path d="M23.954 5.6731L15.536 14.0911C14.5974 15.0274 13.3257 15.5531 12 15.5531C10.6743 15.5531 9.40263 15.0274 8.464 14.0911L0.046 5.6731C0.032 5.8311 0 5.9741 0 6.1311V18.1311C0.00158786 19.4567 0.528882 20.7275 1.46622 21.6649C2.40356 22.6022 3.6744 23.1295 5 23.1311H19C20.3256 23.1295 21.5964 22.6022 22.5338 21.6649C23.4711 20.7275 23.9984 19.4567 24 18.1311V6.1311C24 5.9741 23.968 5.8311 23.954 5.6731Z" fill="#010E11"/>
<path d="M14.122 12.6771L23.256 3.5421C22.8135 2.80842 22.1895 2.20114 21.444 1.77883C20.6985 1.35653 19.8568 1.13344 19 1.1311H5.00002C4.14324 1.13344 3.30152 1.35653 2.55605 1.77883C1.81057 2.20114 1.1865 2.80842 0.744019 3.5421L9.87802 12.6771C10.4416 13.2384 11.2046 13.5536 12 13.5536C12.7954 13.5536 13.5584 13.2384 14.122 12.6771V12.6771Z" fill="#010E11"/>
</svg>
