<svg width="24" height="28" viewBox="0 0 24 28" fill="none" xmlns="http://www.w3.org/2000/svg">
<g clip-path="url(#clip0_6_111)">
<path d="M12 0C8.81847 0.00341265 5.76826 1.23938 3.51858 3.43673C1.2689 5.63409 0.00349392 8.61335 0 11.7209C0 17.9118 10.08 26.4106 11.2248 27.36L12 28L12.7752 27.36C13.92 26.4106 24 17.9118 24 11.7209C23.9965 8.61335 22.7311 5.63409 20.4814 3.43673C18.2317 1.23938 15.1815 0.00341265 12 0V0ZM12 17.5813C10.8133 17.5813 9.65327 17.2376 8.66658 16.5937C7.67988 15.9497 6.91085 15.0344 6.45672 13.9636C6.0026 12.8927 5.88378 11.7144 6.11529 10.5776C6.3468 9.44075 6.91824 8.39652 7.75736 7.57692C8.59647 6.75732 9.66557 6.19917 10.8295 5.97304C11.9933 5.74692 13.1997 5.86297 14.2961 6.30654C15.3925 6.7501 16.3295 7.50125 16.9888 8.46499C17.6481 9.42873 18 10.5618 18 11.7209C17.9981 13.2746 17.3653 14.7641 16.2405 15.8628C15.1157 16.9614 13.5907 17.5795 12 17.5813V17.5813Z" fill="#010E11"/>
<path d="M12 15.2371C13.9882 15.2371 15.6 13.6628 15.6 11.7209C15.6 9.77887 13.9882 8.20459 12 8.20459C10.0118 8.20459 8.40002 9.77887 8.40002 11.7209C8.40002 13.6628 10.0118 15.2371 12 15.2371Z" fill="#010E11"/>
</g>
<defs>
<clipPath id="clip0_6_111">
<rect width="24" height="28" fill="white"/>
</clipPath>
</defs>
</svg>
