<svg width="24" height="24" viewBox="0 0 24 24" fill="none" xmlns="http://www.w3.org/2000/svg">
<g clip-path="url(#clip0_6_115)">
<path d="M22.9985 11.1266C22.7329 11.1266 22.4782 11.0212 22.2904 10.8337C22.1026 10.6462 21.9971 10.3919 21.9971 10.1268C21.995 8.00616 21.1502 5.973 19.6482 4.47349C18.1462 2.97399 16.1096 2.13064 13.9855 2.12852C13.7199 2.12852 13.4651 2.02319 13.2773 1.83569C13.0895 1.6482 12.984 1.3939 12.984 1.12874C12.984 0.86358 13.0895 0.609281 13.2773 0.421786C13.4651 0.23429 13.7199 0.128957 13.9855 0.128957C16.6406 0.131868 19.1861 1.18614 21.0636 3.06047C22.941 4.93479 23.9971 7.47608 24 10.1268C24 10.3919 23.8945 10.6462 23.7067 10.8337C23.5189 11.0212 23.2641 11.1266 22.9985 11.1266ZM19.9942 10.1268C19.9942 8.53582 19.3611 7.01003 18.2343 5.88506C17.1074 4.76009 15.5791 4.12808 13.9855 4.12808C13.7199 4.12808 13.4651 4.23342 13.2773 4.42091C13.0895 4.60841 12.984 4.86271 12.984 5.12787C12.984 5.39303 13.0895 5.64732 13.2773 5.83482C13.4651 6.02231 13.7199 6.12765 13.9855 6.12765C15.0479 6.12765 16.0668 6.54898 16.818 7.29897C17.5692 8.04895 17.9913 9.06614 17.9913 10.1268C17.9913 10.3919 18.0968 10.6462 18.2846 10.8337C18.4724 11.0212 18.7271 11.1266 18.9927 11.1266C19.2583 11.1266 19.5131 11.0212 19.7009 10.8337C19.8887 10.6462 19.9942 10.3919 19.9942 10.1268ZM22.1804 22.2881L23.0917 21.2394C23.6717 20.6584 23.9974 19.8716 23.9974 19.0513C23.9974 18.2311 23.6717 17.4443 23.0917 16.8633C23.0606 16.8323 20.6511 14.9817 20.6511 14.9817C20.0728 14.4322 19.3047 14.1262 18.5063 14.1273C17.7079 14.1284 16.9407 14.4366 16.3639 14.9877L14.4551 16.5934C12.897 15.9496 11.4817 15.0049 10.2904 13.8135C9.09904 12.6221 8.1552 11.2075 7.51305 9.65088L9.11538 7.75129C9.6679 7.17559 9.97693 6.40946 9.97823 5.61216C9.97954 4.81486 9.67302 4.04773 9.12239 3.47023C9.12239 3.47023 7.26669 1.06775 7.23565 1.03676C6.66427 0.462632 5.88958 0.135977 5.07894 0.127372C4.26831 0.118766 3.48683 0.428902 2.90336 0.990769L1.75168 1.99055C-5.0522 9.87083 9.59908 24.3847 17.7529 24.1237C18.5763 24.1285 19.3923 23.9685 20.1527 23.6532C20.9131 23.338 21.6026 22.8738 22.1804 22.2881V22.2881Z" fill="#010E11"/>
</g>
<defs>
<clipPath id="clip0_6_115">
<rect width="24" height="24" fill="white"/>
</clipPath>
</defs>
</svg>
